<svg width="24" height="24" viewBox="0 0 24 24" fill="none" xmlns="http://www.w3.org/2000/svg">
<path d="M10.183 10.1828C9.93036 10.4183 9.72772 10.7021 9.58718 11.0176C9.44663 11.333 9.37106 11.6735 9.36497 12.0188C9.35888 12.364 9.42239 12.707 9.55172 13.0272C9.68105 13.3474 9.87354 13.6382 10.1177 13.8824C10.3619 14.1266 10.6528 14.3191 10.9729 14.4484C11.2931 14.5777 11.6361 14.6412 11.9814 14.6352C12.3266 14.6291 12.6671 14.5535 12.9826 14.4129C13.298 14.2724 13.5819 14.0698 13.8173 13.8171M10.9116 6.06856C11.2727 6.02357 11.6362 6.00067 12.0001 5.99999C18.0001 5.99999 20.5716 12 20.5716 12C20.1884 12.8204 19.7078 13.5916 19.1401 14.2971M7.38014 7.37999C5.6755 8.54109 4.31146 10.1359 3.42871 12C3.42871 12 6.00014 18 12.0001 18C13.6423 18.0044 15.2494 17.5244 16.6201 16.62M3.42871 3.42856L20.5716 20.5714" stroke="#484848" stroke-width="2" stroke-linecap="round" stroke-linejoin="round"/>
</svg>
