<svg width="24" height="24" viewBox="0 0 24 24" fill="none" xmlns="http://www.w3.org/2000/svg">
<path d="M10 12.2953C10.3596 12.7834 10.8183 13.1873 11.3451 13.4796C11.8719 13.7718 12.4545 13.9456 13.0532 13.9891C13.652 14.0327 14.253 13.945 14.8154 13.7319C15.3779 13.5189 15.8886 13.1855 16.313 12.7544L18.8248 10.2039C19.5874 9.40221 20.0094 8.32844 19.9998 7.21389C19.9903 6.09933 19.55 5.03318 18.7738 4.24504C17.9977 3.4569 16.9477 3.00985 15.85 3.00016C14.7524 2.99048 13.6949 3.41893 12.9053 4.19326L11.4652 5.64704" stroke="#484848" stroke-width="2" stroke-linecap="round" stroke-linejoin="round"/>
<path d="M14 10.7047C13.6404 10.2166 13.1817 9.81269 12.6549 9.52044C12.1281 9.22819 11.5455 9.0544 10.9468 9.01086C10.348 8.96732 9.74701 9.05504 9.18456 9.26808C8.62212 9.48112 8.11138 9.81449 7.68697 10.2456L5.17516 12.7961C4.41258 13.5978 3.99062 14.6716 4.00016 15.7861C4.0097 16.9007 4.44997 17.9668 5.22616 18.755C6.00234 19.5431 7.05233 19.9902 8.14998 19.9998C9.24763 20.0095 10.3051 19.5811 11.0947 18.8067L12.5264 17.353" stroke="#484848" stroke-width="2" stroke-linecap="round" stroke-linejoin="round"/>
</svg>
